<?xml version="1.0" encoding="utf-8" standalone="no"?>
<!DOCTYPE svg PUBLIC "-//W3C//DTD SVG 1.1//EN"
  "http://www.w3.org/Graphics/SVG/1.1/DTD/svg11.dtd">
<!-- Created with matplotlib (http://matplotlib.org/) -->
<svg height="288pt" version="1.1" viewBox="0 0 432 288" width="432pt" xmlns="http://www.w3.org/2000/svg" xmlns:xlink="http://www.w3.org/1999/xlink">
 <defs>
  <style type="text/css">
*{stroke-linecap:butt;stroke-linejoin:round;}
  </style>
 </defs>
 <g id="figure_1">
  <g id="patch_1">
   <path d="M 0 288 
L 432 288 
L 432 0 
L 0 0 
z
" style="fill:#ffffff;"/>
  </g>
  <g id="axes_1">
   <g id="patch_2">
    <path d="M 54 252 
L 388.8 252 
L 388.8 34.56 
L 54 34.56 
z
" style="fill:#ffffff;"/>
   </g>
   <g id="PathCollection_1">
    <path clip-path="url(#pe8590f0c6e)" d="M 268.284298 142.41024 
L 269.51405 142.41024 
L 270.743802 142.41024 
L 271.973554 142.41024 
L 273.203306 142.41024 
L 274.433058 142.41024 
L 275.66281 142.41024 
L 276.892562 142.41024 
L 278.122314 142.41024 
L 279.352066 142.41024 
L 280.581818 142.41024 
L 281.81157 142.41024 
L 283.041322 142.41024 
L 284.271074 142.41024 
L 285.500826 142.41024 
L 286.730579 142.41024 
L 287.960331 142.41024 
L 289.190083 142.41024 
L 290.419835 142.41024 
L 291.649587 142.41024 
L 292.879339 142.41024 
L 294.109091 142.41024 
L 295.338843 142.41024 
L 296.568595 142.41024 
L 297.798347 142.41024 
L 299.028099 142.41024 
L 300.257851 142.41024 
L 301.487603 142.41024 
L 302.717355 142.41024 
L 303.947107 142.41024 
L 305.17686 142.41024 
L 306.406612 142.41024 
L 307.636364 142.41024 
L 308.866116 142.41024 
L 310.095868 142.41024 
L 311.32562 142.41024 
L 312.555372 142.41024 
L 313.785124 142.41024 
L 315.014876 142.41024 
L 316.244628 142.41024 
L 317.47438 142.41024 
L 318.704132 142.41024 
L 319.933884 142.41024 
L 321.163636 142.41024 
L 322.393388 142.41024 
L 323.62314 142.41024 
L 324.852893 142.41024 
L 326.082645 142.41024 
L 327.312397 142.41024 
L 328.542149 142.41024 
L 329.771901 142.41024 
L 331.001653 142.41024 
L 332.231405 142.41024 
L 333.461157 142.41024 
L 334.690909 142.41024 
L 335.920661 142.41024 
L 337.150413 142.41024 
L 338.380165 142.41024 
L 339.609917 142.41024 
L 340.839669 142.41024 
L 342.069421 142.41024 
L 343.299174 142.41024 
L 344.528926 142.41024 
L 345.758678 142.41024 
L 346.98843 142.41024 
L 348.218182 142.41024 
L 349.447934 142.41024 
L 350.677686 142.41024 
L 351.907438 142.41024 
L 353.13719 142.41024 
L 354.366942 142.41024 
L 355.596694 142.41024 
L 356.826446 142.41024 
L 358.056198 142.41024 
L 359.28595 142.41024 
L 360.515702 142.41024 
L 361.745455 142.41024 
L 362.975207 142.41024 
L 364.204959 142.41024 
L 365.434711 142.41024 
L 366.664463 142.41024 
L 367.894215 142.41024 
L 369.123967 142.41024 
L 370.353719 142.41024 
L 371.407792 142.41024 
L 371.583471 142.363917 
L 372.813223 142.039654 
L 374.042975 141.71539 
L 375.272727 141.391127 
L 375.272727 141.391127 
L 376.502479 141.066864 
L 377.732231 140.742601 
L 378.961983 140.418338 
L 379.137662 140.372015 
L 380.191736 140.094075 
L 381.421488 139.769812 
L 382.65124 139.445548 
L 383.002597 139.352902 
L 383.880992 139.121285 
L 385.110744 138.797022 
L 386.340496 138.472759 
L 386.867532 138.333789 
L 387.570248 138.148496 
L 388.8 137.824233 
L 388.8 137.314676 
L 388.8 136.295564 
L 388.8 135.276451 
L 388.8 134.257338 
L 388.8 133.238225 
L 388.8 132.219113 
L 388.8 131.2 
L 388.8 130.180887 
L 388.8 129.161775 
L 388.8 128.142662 
L 388.8 127.123549 
L 388.8 126.104436 
L 388.8 125.085324 
L 388.8 124.066211 
L 388.8 123.047098 
L 388.8 122.027985 
L 388.8 121.008873 
L 388.8 119.98976 
L 388.8 118.970647 
L 388.8 117.951535 
L 388.8 116.932422 
L 388.8 115.913309 
L 388.8 114.894196 
L 388.8 113.875084 
L 388.8 112.855971 
L 388.8 111.836858 
L 388.8 110.817745 
L 388.8 109.798633 
L 388.8 108.77952 
L 388.8 107.760407 
L 388.8 106.741295 
L 388.8 105.722182 
L 388.8 104.703069 
L 388.8 103.683956 
L 388.8 102.664844 
L 388.8 101.645731 
L 388.8 100.626618 
L 388.8 99.607505 
L 388.8 98.588393 
L 388.8 97.56928 
L 388.8 96.550167 
L 388.8 95.531055 
L 388.8 94.511942 
L 388.8 93.492829 
L 388.8 92.473716 
L 388.8 91.454604 
L 388.8 90.435491 
L 388.8 89.416378 
L 388.8 88.397265 
L 388.8 87.378153 
L 388.8 86.35904 
L 388.8 85.339927 
L 388.8 84.320815 
L 388.8 83.301702 
L 388.8 82.282589 
L 388.8 81.263476 
L 388.8 80.244364 
L 388.8 79.225251 
L 388.8 78.206138 
L 388.8 77.187025 
L 388.8 76.167913 
L 388.8 75.1488 
L 388.8 74.129687 
L 388.8 73.110575 
L 388.8 72.091462 
L 388.8 71.072349 
L 388.8 70.053236 
L 388.8 69.034124 
L 387.570248 69.288902 
L 386.340496 69.54368 
L 385.110744 69.798458 
L 383.880992 70.053236 
L 383.880992 70.053236 
L 382.65124 70.308015 
L 381.421488 70.562793 
L 380.191736 70.817571 
L 378.961983 71.072349 
L 378.961983 71.072349 
L 377.732231 71.327127 
L 376.502479 71.581905 
L 375.272727 71.836684 
L 374.042975 72.091462 
L 374.042975 72.091462 
L 372.813223 72.34624 
L 371.583471 72.601018 
L 370.353719 72.855796 
L 369.123967 73.110575 
L 369.123967 73.110575 
L 367.894215 73.365353 
L 366.664463 73.75116 
L 366.113195 74.129687 
L 365.434711 74.756834 
L 365.010658 75.1488 
L 364.204959 75.893536 
L 363.908122 76.167913 
L 362.975207 77.030239 
L 362.805586 77.187025 
L 361.745455 78.166942 
L 361.703049 78.206138 
L 360.600513 79.225251 
L 360.515702 79.303644 
L 359.497977 80.244364 
L 359.28595 80.440347 
L 358.39544 81.263476 
L 358.056198 81.57705 
L 357.292904 82.282589 
L 356.826446 82.713752 
L 356.190368 83.301702 
L 355.596694 83.850455 
L 355.087831 84.320815 
L 354.366942 84.987157 
L 353.985295 85.339927 
L 353.13719 86.12386 
L 352.882759 86.35904 
L 351.907438 87.260563 
L 351.780222 87.378153 
L 350.677686 88.397265 
L 350.677686 88.397265 
L 349.57515 89.416378 
L 349.447934 89.533968 
L 348.472613 90.435491 
L 348.218182 90.670671 
L 347.370077 91.454604 
L 346.98843 91.913204 
L 346.521972 92.473716 
L 345.928299 93.492829 
L 345.758678 93.784004 
L 345.334625 94.511942 
L 344.740952 95.531055 
L 344.528926 95.895023 
L 344.147278 96.550167 
L 343.553605 97.56928 
L 343.299174 98.006043 
L 342.959932 98.588393 
L 342.366258 99.607505 
L 342.069421 100.117062 
L 341.772585 100.626618 
L 341.178911 101.645731 
L 340.839669 102.228081 
L 340.585238 102.664844 
L 339.991565 103.683956 
L 339.609917 104.3391 
L 339.397891 104.703069 
L 338.804218 105.722182 
L 338.380165 106.450119 
L 338.210544 106.741295 
L 337.616871 107.760407 
L 337.150413 108.561139 
L 337.023197 108.77952 
L 336.429524 109.798633 
L 335.920661 110.672158 
L 335.835851 110.817745 
L 335.242177 111.836858 
L 334.690909 112.783177 
L 334.648504 112.855971 
L 334.05483 113.875084 
L 333.461157 114.894196 
L 333.461157 114.894196 
L 332.867484 115.913309 
L 332.27381 116.932422 
L 332.231405 117.005216 
L 331.680137 117.951535 
L 331.086463 118.970647 
L 331.001653 119.116235 
L 330.49279 119.98976 
L 329.899117 121.008873 
L 329.771901 121.227254 
L 329.305443 122.027985 
L 328.71177 123.047098 
L 328.542149 123.338273 
L 328.094966 124.066211 
L 327.468911 125.085324 
L 327.312397 125.340102 
L 326.815766 126.104436 
L 326.153592 127.123549 
L 326.082645 127.23274 
L 325.491418 128.142662 
L 324.852893 129.125378 
L 324.829243 129.161775 
L 324.167069 130.180887 
L 323.62314 131.018016 
L 323.504895 131.2 
L 322.842721 132.219113 
L 322.393388 132.910654 
L 322.180547 133.238225 
L 321.518373 134.257338 
L 321.163636 134.803291 
L 320.856198 135.276451 
L 319.933884 135.938874 
L 318.704132 135.930012 
L 317.47438 135.797085 
L 316.244628 135.664157 
L 315.014876 135.531229 
L 313.785124 135.398301 
L 312.657851 135.276451 
L 312.555372 135.265374 
L 311.32562 135.132446 
L 310.095868 134.999518 
L 308.866116 134.86659 
L 307.636364 134.733663 
L 306.406612 134.600735 
L 305.17686 134.467807 
L 303.947107 134.334879 
L 303.229752 134.257338 
L 302.717355 134.201952 
L 301.487603 134.069024 
L 300.257851 133.936096 
L 299.028099 133.803168 
L 297.798347 133.670241 
L 296.568595 133.537313 
L 295.338843 133.404385 
L 294.109091 133.271457 
L 293.801653 133.238225 
L 292.879339 133.13853 
L 291.649587 133.005602 
L 290.419835 132.872674 
L 289.190083 132.739746 
L 287.960331 132.606819 
L 286.730579 132.473891 
L 285.500826 132.340963 
L 284.373554 132.219113 
L 284.271074 132.208035 
L 283.041322 132.075108 
L 281.81157 131.94218 
L 280.581818 131.809252 
L 279.352066 131.676324 
L 278.122314 131.543397 
L 276.892562 131.410469 
L 275.66281 131.277541 
L 274.945455 131.2 
L 274.433058 131.144613 
L 273.203306 131.011686 
L 271.973554 130.878758 
L 270.743802 130.74583 
L 269.51405 130.612902 
L 268.284298 130.479975 
L 267.054545 130.347047 
L 267.054545 131.2 
L 267.054545 132.219113 
L 267.054545 133.238225 
L 267.054545 134.257338 
L 267.054545 135.276451 
L 267.054545 136.295564 
L 267.054545 137.314676 
L 267.054545 138.333789 
L 267.054545 139.352902 
L 267.054545 140.372015 
L 267.054545 141.391127 
L 267.054545 142.41024 
z
" style="fill:#a2cffe;"/>
   </g>
   <g id="PathCollection_2">
    <path clip-path="url(#pe8590f0c6e)" d="M 55.229752 243.3024 
L 56.459504 243.3024 
L 57.689256 243.3024 
L 58.919008 243.3024 
L 60.14876 243.3024 
L 61.378512 243.3024 
L 62.608264 243.3024 
L 63.838017 243.3024 
L 65.067769 243.3024 
L 66.297521 243.3024 
L 67.527273 243.3024 
L 68.757025 243.3024 
L 69.986777 243.3024 
L 71.216529 243.3024 
L 72.446281 243.3024 
L 73.676033 243.3024 
L 74.905785 243.3024 
L 76.135537 243.3024 
L 77.365289 243.3024 
L 78.595041 243.3024 
L 79.824793 243.3024 
L 81.054545 243.3024 
L 82.284298 243.3024 
L 83.51405 243.3024 
L 84.743802 243.3024 
L 85.973554 243.3024 
L 87.203306 243.3024 
L 88.433058 243.3024 
L 89.66281 243.3024 
L 90.892562 243.3024 
L 92.122314 243.3024 
L 93.352066 243.3024 
L 94.581818 243.3024 
L 95.81157 243.3024 
L 97.041322 243.3024 
L 98.271074 243.3024 
L 99.500826 243.3024 
L 100.730579 243.3024 
L 101.960331 243.3024 
L 103.190083 243.3024 
L 104.419835 243.3024 
L 105.649587 243.3024 
L 106.879339 243.3024 
L 108.109091 243.3024 
L 109.338843 243.3024 
L 110.568595 243.3024 
L 111.798347 243.3024 
L 113.028099 243.3024 
L 114.257851 243.3024 
L 115.487603 243.3024 
L 116.717355 243.3024 
L 117.947107 243.3024 
L 119.17686 243.3024 
L 120.406612 243.3024 
L 121.636364 243.3024 
L 122.866116 243.3024 
L 124.095868 243.3024 
L 125.32562 243.3024 
L 126.555372 243.3024 
L 127.785124 243.3024 
L 129.014876 243.3024 
L 130.244628 243.3024 
L 131.47438 243.3024 
L 132.704132 243.3024 
L 133.933884 243.3024 
L 135.163636 243.3024 
L 136.393388 243.3024 
L 137.62314 243.3024 
L 138.852893 243.3024 
L 140.082645 243.3024 
L 141.312397 243.3024 
L 142.542149 243.3024 
L 143.771901 243.3024 
L 145.001653 243.3024 
L 146.231405 243.3024 
L 147.461157 243.3024 
L 148.690909 243.3024 
L 149.920661 243.3024 
L 151.150413 243.3024 
L 152.380165 243.3024 
L 153.609917 243.3024 
L 154.839669 243.3024 
L 156.069421 243.3024 
L 157.299174 243.3024 
L 158.528926 243.3024 
L 159.758678 243.3024 
L 160.98843 243.3024 
L 162.218182 243.3024 
L 163.447934 243.3024 
L 164.331818 243.3024 
L 163.447934 243.018023 
L 162.218182 242.622367 
L 161.718595 242.461632 
L 160.98843 242.226712 
L 159.758678 241.831056 
L 159.105372 241.620864 
L 158.528926 241.4354 
L 157.299174 241.039745 
L 156.492149 240.780096 
L 156.069421 240.644089 
L 154.839669 240.248434 
L 153.878926 239.939328 
L 153.609917 239.852778 
L 152.380165 239.457123 
L 151.265702 239.09856 
L 151.150413 239.061467 
L 149.920661 238.665812 
L 148.690909 238.270156 
L 148.652479 238.257792 
L 147.461157 237.874501 
L 146.231405 237.478845 
L 146.039256 237.417024 
L 145.001653 237.08319 
L 143.771901 236.687534 
L 143.426033 236.576256 
L 142.542149 236.291879 
L 141.312397 235.896223 
L 140.81281 235.735488 
L 140.082645 235.500568 
L 138.852893 235.104912 
L 138.199587 234.89472 
L 137.62314 234.709256 
L 136.393388 234.313601 
L 135.586364 234.053952 
L 135.163636 233.917945 
L 133.933884 233.52229 
L 132.97314 233.213184 
L 132.704132 233.126634 
L 131.47438 232.730979 
L 130.731405 232.372416 
L 130.244628 231.928677 
L 129.917975 231.531648 
L 129.22624 230.69088 
L 129.014876 230.433979 
L 128.534504 229.850112 
L 127.842769 229.009344 
L 127.785124 228.93928 
L 127.151033 228.168576 
L 126.555372 227.444581 
L 126.459298 227.327808 
L 125.767562 226.48704 
L 125.32562 225.949883 
L 125.075826 225.646272 
L 124.384091 224.805504 
L 124.095868 224.455184 
L 123.692355 223.964736 
L 123.00062 223.123968 
L 122.866116 222.960485 
L 122.308884 222.2832 
L 121.636364 221.465787 
L 121.617149 221.442432 
L 120.925413 220.601664 
L 120.406612 219.971088 
L 120.233678 219.760896 
L 119.541942 218.920128 
L 119.17686 218.476389 
L 118.850207 218.07936 
L 118.158471 217.238592 
L 117.947107 216.981691 
L 117.466736 216.397824 
L 116.775 215.557056 
L 116.717355 215.486992 
L 116.083264 214.716288 
L 115.487603 213.992293 
L 115.241653 213.87552 
L 114.257851 213.408427 
L 113.028099 213.735392 
L 112.501063 213.87552 
L 111.798347 214.062357 
L 110.568595 214.389323 
L 109.338843 214.716288 
L 109.338843 214.716288 
L 108.109091 215.043253 
L 106.879339 215.370219 
L 106.176623 215.557056 
L 105.649587 215.697184 
L 104.419835 216.024149 
L 103.190083 216.351115 
L 103.014404 216.397824 
L 101.960331 216.67808 
L 100.730579 217.005045 
L 99.852184 217.238592 
L 99.500826 217.332011 
L 98.271074 217.658976 
L 97.041322 217.985941 
L 96.689965 218.07936 
L 95.81157 218.312907 
L 94.581818 218.639872 
L 93.527745 218.920128 
L 93.352066 218.966837 
L 92.122314 219.293803 
L 90.892562 219.620768 
L 90.365525 219.760896 
L 89.66281 219.947733 
L 88.433058 220.274699 
L 87.203306 220.601664 
L 85.973554 221.249756 
L 85.607952 221.442432 
L 84.743802 221.897848 
L 84.012598 222.2832 
L 83.51405 222.54594 
L 82.417244 223.123968 
L 82.284298 223.194032 
L 81.054545 223.842124 
L 80.82189 223.964736 
L 79.824793 224.490216 
L 79.226536 224.805504 
L 78.595041 225.138308 
L 77.631182 225.646272 
L 77.365289 225.7864 
L 76.135537 226.434492 
L 76.035828 226.48704 
L 74.905785 227.082584 
L 74.440474 227.327808 
L 73.676033 227.730676 
L 72.845119 228.168576 
L 72.446281 228.378768 
L 71.249765 229.009344 
L 71.216529 229.02686 
L 69.986777 229.674952 
L 69.654411 229.850112 
L 68.757025 230.323044 
L 68.059057 230.69088 
L 67.527273 230.971136 
L 66.463703 231.531648 
L 66.297521 231.619228 
L 65.067769 232.26732 
L 64.868349 232.372416 
L 63.838017 232.915412 
L 63.272995 233.213184 
L 62.608264 233.563504 
L 61.677641 234.053952 
L 61.378512 234.211596 
L 60.14876 234.859688 
L 60.082287 234.89472 
L 58.919008 235.50778 
L 58.486933 235.735488 
L 57.689256 236.155872 
L 56.891579 236.576256 
L 56.459504 236.803964 
L 55.296225 237.417024 
L 55.229752 237.452056 
L 54 238.100148 
L 54 238.257792 
L 54 239.09856 
L 54 239.939328 
L 54 240.780096 
L 54 241.620864 
L 54 242.461632 
L 54 243.3024 
z
" style="fill:#a2cffe;"/>
    <path clip-path="url(#pe8590f0c6e)" d="M 115.487603 187.837986 
L 115.506818 187.811712 
L 116.121694 186.970944 
L 116.717355 186.15645 
L 116.73657 186.130176 
L 117.351446 185.289408 
L 117.947107 184.474914 
L 117.966322 184.44864 
L 118.581198 183.607872 
L 119.17686 182.793378 
L 119.196074 182.767104 
L 119.81095 181.926336 
L 120.406612 181.111842 
L 120.425826 181.085568 
L 121.040702 180.2448 
L 121.636364 179.430306 
L 121.655579 179.404032 
L 122.270455 178.563264 
L 122.866116 177.74877 
L 122.885331 177.722496 
L 123.500207 176.881728 
L 124.095868 176.067234 
L 124.115083 176.04096 
L 124.729959 175.200192 
L 125.32562 174.385698 
L 125.344835 174.359424 
L 125.959711 173.518656 
L 126.555372 172.704162 
L 126.574587 172.677888 
L 127.189463 171.83712 
L 127.785124 171.022626 
L 127.804339 170.996352 
L 128.419215 170.155584 
L 128.895317 169.314816 
L 129.014876 168.94698 
L 129.153223 168.474048 
L 129.399174 167.63328 
L 129.645124 166.792512 
L 129.891074 165.951744 
L 130.137025 165.110976 
L 130.244628 164.74314 
L 130.382975 164.270208 
L 130.628926 163.42944 
L 130.874876 162.588672 
L 131.120826 161.747904 
L 131.366777 160.907136 
L 131.47438 160.5393 
L 131.612727 160.066368 
L 131.47438 160.066368 
L 130.244628 160.066368 
L 129.014876 160.066368 
L 127.785124 160.066368 
L 126.555372 160.066368 
L 125.32562 160.066368 
L 124.095868 160.066368 
L 122.866116 160.066368 
L 121.636364 160.066368 
L 120.406612 160.066368 
L 119.17686 160.066368 
L 117.947107 160.066368 
L 116.717355 160.066368 
L 115.487603 160.066368 
L 114.257851 160.066368 
L 113.028099 160.066368 
L 111.798347 160.066368 
L 110.568595 160.066368 
L 109.338843 160.066368 
L 108.109091 160.066368 
L 107.969634 160.066368 
L 107.411809 160.907136 
L 106.879339 161.709687 
L 106.853983 161.747904 
L 106.296157 162.588672 
L 105.738332 163.42944 
L 105.649587 163.563199 
L 105.180506 164.270208 
L 104.62268 165.110976 
L 104.419835 165.41671 
L 104.064855 165.951744 
L 103.507029 166.792512 
L 103.190083 167.270221 
L 102.949203 167.63328 
L 102.584384 168.474048 
L 102.625061 169.314816 
L 103.156846 170.155584 
L 103.190083 170.208132 
L 103.688631 170.996352 
L 104.220415 171.83712 
L 104.419835 172.152408 
L 104.7522 172.677888 
L 105.283985 173.518656 
L 105.649587 174.096684 
L 105.815769 174.359424 
L 106.347554 175.200192 
L 106.879339 176.04096 
L 106.879339 176.04096 
L 107.411124 176.881728 
L 107.942908 177.722496 
L 108.109091 177.985236 
L 108.474693 178.563264 
L 109.006478 179.404032 
L 109.338843 179.929512 
L 109.538262 180.2448 
L 110.070047 181.085568 
L 110.568595 181.873788 
L 110.601832 181.926336 
L 111.133616 182.767104 
L 111.665401 183.607872 
L 111.798347 183.818064 
L 112.197186 184.44864 
L 112.72897 185.289408 
L 113.028099 185.76234 
L 113.260755 186.130176 
L 113.79254 186.970944 
L 114.257851 187.706616 
L 115.241653 187.811712 
z
" style="fill:#a2cffe;"/>
   </g>
   <g id="matplotlib.axis_1">
    <g id="xtick_1">
     <g id="line2d_1">
      <defs>
       <path d="M 0 0 
L 0 3.5 
" id="m91401c1ee1" style="stroke:#000000;stroke-width:0.8;"/>
      </defs>
      <g>
       <use style="stroke:#000000;stroke-width:0.8;" x="54" xlink:href="#m91401c1ee1" y="252"/>
      </g>
     </g>
     <g id="text_1">
      <!-- 20 -->
      <defs>
       <path d="M 19.1875 8.296875 
L 53.609375 8.296875 
L 53.609375 0 
L 7.328125 0 
L 7.328125 8.296875 
Q 12.9375 14.109375 22.625 23.890625 
Q 32.328125 33.6875 34.8125 36.53125 
Q 39.546875 41.84375 41.421875 45.53125 
Q 43.3125 49.21875 43.3125 52.78125 
Q 43.3125 58.59375 39.234375 62.25 
Q 35.15625 65.921875 28.609375 65.921875 
Q 23.96875 65.921875 18.8125 64.3125 
Q 13.671875 62.703125 7.8125 59.421875 
L 7.8125 69.390625 
Q 13.765625 71.78125 18.9375 73 
Q 24.125 74.21875 28.421875 74.21875 
Q 39.75 74.21875 46.484375 68.546875 
Q 53.21875 62.890625 53.21875 53.421875 
Q 53.21875 48.921875 51.53125 44.890625 
Q 49.859375 40.875 45.40625 35.40625 
Q 44.1875 33.984375 37.640625 27.21875 
Q 31.109375 20.453125 19.1875 8.296875 
" id="DejaVuSans-32"/>
       <path d="M 31.78125 66.40625 
Q 24.171875 66.40625 20.328125 58.90625 
Q 16.5 51.421875 16.5 36.375 
Q 16.5 21.390625 20.328125 13.890625 
Q 24.171875 6.390625 31.78125 6.390625 
Q 39.453125 6.390625 43.28125 13.890625 
Q 47.125 21.390625 47.125 36.375 
Q 47.125 51.421875 43.28125 58.90625 
Q 39.453125 66.40625 31.78125 66.40625 
M 31.78125 74.21875 
Q 44.046875 74.21875 50.515625 64.515625 
Q 56.984375 54.828125 56.984375 36.375 
Q 56.984375 17.96875 50.515625 8.265625 
Q 44.046875 -1.421875 31.78125 -1.421875 
Q 19.53125 -1.421875 13.0625 8.265625 
Q 6.59375 17.96875 6.59375 36.375 
Q 6.59375 54.828125 13.0625 64.515625 
Q 19.53125 74.21875 31.78125 74.21875 
" id="DejaVuSans-30"/>
      </defs>
      <g transform="translate(47.6375 266.598437)scale(0.1 -0.1)">
       <use xlink:href="#DejaVuSans-32"/>
       <use x="63.623047" xlink:href="#DejaVuSans-30"/>
      </g>
     </g>
    </g>
    <g id="xtick_2">
     <g id="line2d_2">
      <g>
       <use style="stroke:#000000;stroke-width:0.8;" x="114.872727" xlink:href="#m91401c1ee1" y="252"/>
      </g>
     </g>
     <g id="text_2">
      <!-- 22 -->
      <g transform="translate(108.510227 266.598437)scale(0.1 -0.1)">
       <use xlink:href="#DejaVuSans-32"/>
       <use x="63.623047" xlink:href="#DejaVuSans-32"/>
      </g>
     </g>
    </g>
    <g id="xtick_3">
     <g id="line2d_3">
      <g>
       <use style="stroke:#000000;stroke-width:0.8;" x="175.745455" xlink:href="#m91401c1ee1" y="252"/>
      </g>
     </g>
     <g id="text_3">
      <!-- 24 -->
      <defs>
       <path d="M 37.796875 64.3125 
L 12.890625 25.390625 
L 37.796875 25.390625 
z
M 35.203125 72.90625 
L 47.609375 72.90625 
L 47.609375 25.390625 
L 58.015625 25.390625 
L 58.015625 17.1875 
L 47.609375 17.1875 
L 47.609375 0 
L 37.796875 0 
L 37.796875 17.1875 
L 4.890625 17.1875 
L 4.890625 26.703125 
z
" id="DejaVuSans-34"/>
      </defs>
      <g transform="translate(169.382955 266.598437)scale(0.1 -0.1)">
       <use xlink:href="#DejaVuSans-32"/>
       <use x="63.623047" xlink:href="#DejaVuSans-34"/>
      </g>
     </g>
    </g>
    <g id="xtick_4">
     <g id="line2d_4">
      <g>
       <use style="stroke:#000000;stroke-width:0.8;" x="236.618182" xlink:href="#m91401c1ee1" y="252"/>
      </g>
     </g>
     <g id="text_4">
      <!-- 26 -->
      <defs>
       <path d="M 33.015625 40.375 
Q 26.375 40.375 22.484375 35.828125 
Q 18.609375 31.296875 18.609375 23.390625 
Q 18.609375 15.53125 22.484375 10.953125 
Q 26.375 6.390625 33.015625 6.390625 
Q 39.65625 6.390625 43.53125 10.953125 
Q 47.40625 15.53125 47.40625 23.390625 
Q 47.40625 31.296875 43.53125 35.828125 
Q 39.65625 40.375 33.015625 40.375 
M 52.59375 71.296875 
L 52.59375 62.3125 
Q 48.875 64.0625 45.09375 64.984375 
Q 41.3125 65.921875 37.59375 65.921875 
Q 27.828125 65.921875 22.671875 59.328125 
Q 17.53125 52.734375 16.796875 39.40625 
Q 19.671875 43.65625 24.015625 45.921875 
Q 28.375 48.1875 33.59375 48.1875 
Q 44.578125 48.1875 50.953125 41.515625 
Q 57.328125 34.859375 57.328125 23.390625 
Q 57.328125 12.15625 50.6875 5.359375 
Q 44.046875 -1.421875 33.015625 -1.421875 
Q 20.359375 -1.421875 13.671875 8.265625 
Q 6.984375 17.96875 6.984375 36.375 
Q 6.984375 53.65625 15.1875 63.9375 
Q 23.390625 74.21875 37.203125 74.21875 
Q 40.921875 74.21875 44.703125 73.484375 
Q 48.484375 72.75 52.59375 71.296875 
" id="DejaVuSans-36"/>
      </defs>
      <g transform="translate(230.255682 266.598437)scale(0.1 -0.1)">
       <use xlink:href="#DejaVuSans-32"/>
       <use x="63.623047" xlink:href="#DejaVuSans-36"/>
      </g>
     </g>
    </g>
    <g id="xtick_5">
     <g id="line2d_5">
      <g>
       <use style="stroke:#000000;stroke-width:0.8;" x="297.490909" xlink:href="#m91401c1ee1" y="252"/>
      </g>
     </g>
     <g id="text_5">
      <!-- 28 -->
      <defs>
       <path d="M 31.78125 34.625 
Q 24.75 34.625 20.71875 30.859375 
Q 16.703125 27.09375 16.703125 20.515625 
Q 16.703125 13.921875 20.71875 10.15625 
Q 24.75 6.390625 31.78125 6.390625 
Q 38.8125 6.390625 42.859375 10.171875 
Q 46.921875 13.96875 46.921875 20.515625 
Q 46.921875 27.09375 42.890625 30.859375 
Q 38.875 34.625 31.78125 34.625 
M 21.921875 38.8125 
Q 15.578125 40.375 12.03125 44.71875 
Q 8.5 49.078125 8.5 55.328125 
Q 8.5 64.0625 14.71875 69.140625 
Q 20.953125 74.21875 31.78125 74.21875 
Q 42.671875 74.21875 48.875 69.140625 
Q 55.078125 64.0625 55.078125 55.328125 
Q 55.078125 49.078125 51.53125 44.71875 
Q 48 40.375 41.703125 38.8125 
Q 48.828125 37.15625 52.796875 32.3125 
Q 56.78125 27.484375 56.78125 20.515625 
Q 56.78125 9.90625 50.3125 4.234375 
Q 43.84375 -1.421875 31.78125 -1.421875 
Q 19.734375 -1.421875 13.25 4.234375 
Q 6.78125 9.90625 6.78125 20.515625 
Q 6.78125 27.484375 10.78125 32.3125 
Q 14.796875 37.15625 21.921875 38.8125 
M 18.3125 54.390625 
Q 18.3125 48.734375 21.84375 45.5625 
Q 25.390625 42.390625 31.78125 42.390625 
Q 38.140625 42.390625 41.71875 45.5625 
Q 45.3125 48.734375 45.3125 54.390625 
Q 45.3125 60.0625 41.71875 63.234375 
Q 38.140625 66.40625 31.78125 66.40625 
Q 25.390625 66.40625 21.84375 63.234375 
Q 18.3125 60.0625 18.3125 54.390625 
" id="DejaVuSans-38"/>
      </defs>
      <g transform="translate(291.128409 266.598437)scale(0.1 -0.1)">
       <use xlink:href="#DejaVuSans-32"/>
       <use x="63.623047" xlink:href="#DejaVuSans-38"/>
      </g>
     </g>
    </g>
    <g id="xtick_6">
     <g id="line2d_6">
      <g>
       <use style="stroke:#000000;stroke-width:0.8;" x="358.363636" xlink:href="#m91401c1ee1" y="252"/>
      </g>
     </g>
     <g id="text_6">
      <!-- 30 -->
      <defs>
       <path d="M 40.578125 39.3125 
Q 47.65625 37.796875 51.625 33 
Q 55.609375 28.21875 55.609375 21.1875 
Q 55.609375 10.40625 48.1875 4.484375 
Q 40.765625 -1.421875 27.09375 -1.421875 
Q 22.515625 -1.421875 17.65625 -0.515625 
Q 12.796875 0.390625 7.625 2.203125 
L 7.625 11.71875 
Q 11.71875 9.328125 16.59375 8.109375 
Q 21.484375 6.890625 26.8125 6.890625 
Q 36.078125 6.890625 40.9375 10.546875 
Q 45.796875 14.203125 45.796875 21.1875 
Q 45.796875 27.640625 41.28125 31.265625 
Q 36.765625 34.90625 28.71875 34.90625 
L 20.21875 34.90625 
L 20.21875 43.015625 
L 29.109375 43.015625 
Q 36.375 43.015625 40.234375 45.921875 
Q 44.09375 48.828125 44.09375 54.296875 
Q 44.09375 59.90625 40.109375 62.90625 
Q 36.140625 65.921875 28.71875 65.921875 
Q 24.65625 65.921875 20.015625 65.03125 
Q 15.375 64.15625 9.8125 62.3125 
L 9.8125 71.09375 
Q 15.4375 72.65625 20.34375 73.4375 
Q 25.25 74.21875 29.59375 74.21875 
Q 40.828125 74.21875 47.359375 69.109375 
Q 53.90625 64.015625 53.90625 55.328125 
Q 53.90625 49.265625 50.4375 45.09375 
Q 46.96875 40.921875 40.578125 39.3125 
" id="DejaVuSans-33"/>
      </defs>
      <g transform="translate(352.001136 266.598437)scale(0.1 -0.1)">
       <use xlink:href="#DejaVuSans-33"/>
       <use x="63.623047" xlink:href="#DejaVuSans-30"/>
      </g>
     </g>
    </g>
    <g id="text_7">
     <!-- Extruder frequency (Hz) -->
     <defs>
      <path d="M 9.8125 72.90625 
L 55.90625 72.90625 
L 55.90625 64.59375 
L 19.671875 64.59375 
L 19.671875 43.015625 
L 54.390625 43.015625 
L 54.390625 34.71875 
L 19.671875 34.71875 
L 19.671875 8.296875 
L 56.78125 8.296875 
L 56.78125 0 
L 9.8125 0 
z
" id="DejaVuSans-45"/>
      <path d="M 54.890625 54.6875 
L 35.109375 28.078125 
L 55.90625 0 
L 45.3125 0 
L 29.390625 21.484375 
L 13.484375 0 
L 2.875 0 
L 24.125 28.609375 
L 4.6875 54.6875 
L 15.28125 54.6875 
L 29.78125 35.203125 
L 44.28125 54.6875 
z
" id="DejaVuSans-78"/>
      <path d="M 18.3125 70.21875 
L 18.3125 54.6875 
L 36.8125 54.6875 
L 36.8125 47.703125 
L 18.3125 47.703125 
L 18.3125 18.015625 
Q 18.3125 11.328125 20.140625 9.421875 
Q 21.96875 7.515625 27.59375 7.515625 
L 36.8125 7.515625 
L 36.8125 0 
L 27.59375 0 
Q 17.1875 0 13.234375 3.875 
Q 9.28125 7.765625 9.28125 18.015625 
L 9.28125 47.703125 
L 2.6875 47.703125 
L 2.6875 54.6875 
L 9.28125 54.6875 
L 9.28125 70.21875 
z
" id="DejaVuSans-74"/>
      <path d="M 41.109375 46.296875 
Q 39.59375 47.171875 37.8125 47.578125 
Q 36.03125 48 33.890625 48 
Q 26.265625 48 22.1875 43.046875 
Q 18.109375 38.09375 18.109375 28.8125 
L 18.109375 0 
L 9.078125 0 
L 9.078125 54.6875 
L 18.109375 54.6875 
L 18.109375 46.1875 
Q 20.953125 51.171875 25.484375 53.578125 
Q 30.03125 56 36.53125 56 
Q 37.453125 56 38.578125 55.875 
Q 39.703125 55.765625 41.0625 55.515625 
z
" id="DejaVuSans-72"/>
      <path d="M 8.5 21.578125 
L 8.5 54.6875 
L 17.484375 54.6875 
L 17.484375 21.921875 
Q 17.484375 14.15625 20.5 10.265625 
Q 23.53125 6.390625 29.59375 6.390625 
Q 36.859375 6.390625 41.078125 11.03125 
Q 45.3125 15.671875 45.3125 23.6875 
L 45.3125 54.6875 
L 54.296875 54.6875 
L 54.296875 0 
L 45.3125 0 
L 45.3125 8.40625 
Q 42.046875 3.421875 37.71875 1 
Q 33.40625 -1.421875 27.6875 -1.421875 
Q 18.265625 -1.421875 13.375 4.4375 
Q 8.5 10.296875 8.5 21.578125 
M 31.109375 56 
z
" id="DejaVuSans-75"/>
      <path d="M 45.40625 46.390625 
L 45.40625 75.984375 
L 54.390625 75.984375 
L 54.390625 0 
L 45.40625 0 
L 45.40625 8.203125 
Q 42.578125 3.328125 38.25 0.953125 
Q 33.9375 -1.421875 27.875 -1.421875 
Q 17.96875 -1.421875 11.734375 6.484375 
Q 5.515625 14.40625 5.515625 27.296875 
Q 5.515625 40.1875 11.734375 48.09375 
Q 17.96875 56 27.875 56 
Q 33.9375 56 38.25 53.625 
Q 42.578125 51.265625 45.40625 46.390625 
M 14.796875 27.296875 
Q 14.796875 17.390625 18.875 11.75 
Q 22.953125 6.109375 30.078125 6.109375 
Q 37.203125 6.109375 41.296875 11.75 
Q 45.40625 17.390625 45.40625 27.296875 
Q 45.40625 37.203125 41.296875 42.84375 
Q 37.203125 48.484375 30.078125 48.484375 
Q 22.953125 48.484375 18.875 42.84375 
Q 14.796875 37.203125 14.796875 27.296875 
" id="DejaVuSans-64"/>
      <path d="M 56.203125 29.59375 
L 56.203125 25.203125 
L 14.890625 25.203125 
Q 15.484375 15.921875 20.484375 11.0625 
Q 25.484375 6.203125 34.421875 6.203125 
Q 39.59375 6.203125 44.453125 7.46875 
Q 49.3125 8.734375 54.109375 11.28125 
L 54.109375 2.78125 
Q 49.265625 0.734375 44.1875 -0.34375 
Q 39.109375 -1.421875 33.890625 -1.421875 
Q 20.796875 -1.421875 13.15625 6.1875 
Q 5.515625 13.8125 5.515625 26.8125 
Q 5.515625 40.234375 12.765625 48.109375 
Q 20.015625 56 32.328125 56 
Q 43.359375 56 49.78125 48.890625 
Q 56.203125 41.796875 56.203125 29.59375 
M 47.21875 32.234375 
Q 47.125 39.59375 43.09375 43.984375 
Q 39.0625 48.390625 32.421875 48.390625 
Q 24.90625 48.390625 20.390625 44.140625 
Q 15.875 39.890625 15.1875 32.171875 
z
" id="DejaVuSans-65"/>
      <path id="DejaVuSans-20"/>
      <path d="M 37.109375 75.984375 
L 37.109375 68.5 
L 28.515625 68.5 
Q 23.6875 68.5 21.796875 66.546875 
Q 19.921875 64.59375 19.921875 59.515625 
L 19.921875 54.6875 
L 34.71875 54.6875 
L 34.71875 47.703125 
L 19.921875 47.703125 
L 19.921875 0 
L 10.890625 0 
L 10.890625 47.703125 
L 2.296875 47.703125 
L 2.296875 54.6875 
L 10.890625 54.6875 
L 10.890625 58.5 
Q 10.890625 67.625 15.140625 71.796875 
Q 19.390625 75.984375 28.609375 75.984375 
z
" id="DejaVuSans-66"/>
      <path d="M 14.796875 27.296875 
Q 14.796875 17.390625 18.875 11.75 
Q 22.953125 6.109375 30.078125 6.109375 
Q 37.203125 6.109375 41.296875 11.75 
Q 45.40625 17.390625 45.40625 27.296875 
Q 45.40625 37.203125 41.296875 42.84375 
Q 37.203125 48.484375 30.078125 48.484375 
Q 22.953125 48.484375 18.875 42.84375 
Q 14.796875 37.203125 14.796875 27.296875 
M 45.40625 8.203125 
Q 42.578125 3.328125 38.25 0.953125 
Q 33.9375 -1.421875 27.875 -1.421875 
Q 17.96875 -1.421875 11.734375 6.484375 
Q 5.515625 14.40625 5.515625 27.296875 
Q 5.515625 40.1875 11.734375 48.09375 
Q 17.96875 56 27.875 56 
Q 33.9375 56 38.25 53.625 
Q 42.578125 51.265625 45.40625 46.390625 
L 45.40625 54.6875 
L 54.390625 54.6875 
L 54.390625 -20.796875 
L 45.40625 -20.796875 
z
" id="DejaVuSans-71"/>
      <path d="M 54.890625 33.015625 
L 54.890625 0 
L 45.90625 0 
L 45.90625 32.71875 
Q 45.90625 40.484375 42.875 44.328125 
Q 39.84375 48.1875 33.796875 48.1875 
Q 26.515625 48.1875 22.3125 43.546875 
Q 18.109375 38.921875 18.109375 30.90625 
L 18.109375 0 
L 9.078125 0 
L 9.078125 54.6875 
L 18.109375 54.6875 
L 18.109375 46.1875 
Q 21.34375 51.125 25.703125 53.5625 
Q 30.078125 56 35.796875 56 
Q 45.21875 56 50.046875 50.171875 
Q 54.890625 44.34375 54.890625 33.015625 
" id="DejaVuSans-6e"/>
      <path d="M 48.78125 52.59375 
L 48.78125 44.1875 
Q 44.96875 46.296875 41.140625 47.34375 
Q 37.3125 48.390625 33.40625 48.390625 
Q 24.65625 48.390625 19.8125 42.84375 
Q 14.984375 37.3125 14.984375 27.296875 
Q 14.984375 17.28125 19.8125 11.734375 
Q 24.65625 6.203125 33.40625 6.203125 
Q 37.3125 6.203125 41.140625 7.25 
Q 44.96875 8.296875 48.78125 10.40625 
L 48.78125 2.09375 
Q 45.015625 0.34375 40.984375 -0.53125 
Q 36.96875 -1.421875 32.421875 -1.421875 
Q 20.0625 -1.421875 12.78125 6.34375 
Q 5.515625 14.109375 5.515625 27.296875 
Q 5.515625 40.671875 12.859375 48.328125 
Q 20.21875 56 33.015625 56 
Q 37.15625 56 41.109375 55.140625 
Q 45.0625 54.296875 48.78125 52.59375 
" id="DejaVuSans-63"/>
      <path d="M 32.171875 -5.078125 
Q 28.375 -14.84375 24.75 -17.8125 
Q 21.140625 -20.796875 15.09375 -20.796875 
L 7.90625 -20.796875 
L 7.90625 -13.28125 
L 13.1875 -13.28125 
Q 16.890625 -13.28125 18.9375 -11.515625 
Q 21 -9.765625 23.484375 -3.21875 
L 25.09375 0.875 
L 2.984375 54.6875 
L 12.5 54.6875 
L 29.59375 11.921875 
L 46.6875 54.6875 
L 56.203125 54.6875 
z
" id="DejaVuSans-79"/>
      <path d="M 31 75.875 
Q 24.46875 64.65625 21.28125 53.65625 
Q 18.109375 42.671875 18.109375 31.390625 
Q 18.109375 20.125 21.3125 9.0625 
Q 24.515625 -2 31 -13.1875 
L 23.1875 -13.1875 
Q 15.875 -1.703125 12.234375 9.375 
Q 8.59375 20.453125 8.59375 31.390625 
Q 8.59375 42.28125 12.203125 53.3125 
Q 15.828125 64.359375 23.1875 75.875 
z
" id="DejaVuSans-28"/>
      <path d="M 9.8125 72.90625 
L 19.671875 72.90625 
L 19.671875 43.015625 
L 55.515625 43.015625 
L 55.515625 72.90625 
L 65.375 72.90625 
L 65.375 0 
L 55.515625 0 
L 55.515625 34.71875 
L 19.671875 34.71875 
L 19.671875 0 
L 9.8125 0 
z
" id="DejaVuSans-48"/>
      <path d="M 5.515625 54.6875 
L 48.1875 54.6875 
L 48.1875 46.484375 
L 14.40625 7.171875 
L 48.1875 7.171875 
L 48.1875 0 
L 4.296875 0 
L 4.296875 8.203125 
L 38.09375 47.515625 
L 5.515625 47.515625 
z
" id="DejaVuSans-7a"/>
      <path d="M 8.015625 75.875 
L 15.828125 75.875 
Q 23.140625 64.359375 26.78125 53.3125 
Q 30.421875 42.28125 30.421875 31.390625 
Q 30.421875 20.453125 26.78125 9.375 
Q 23.140625 -1.703125 15.828125 -13.1875 
L 8.015625 -13.1875 
Q 14.5 -2 17.703125 9.0625 
Q 20.90625 20.125 20.90625 31.390625 
Q 20.90625 42.671875 17.703125 53.65625 
Q 14.5 64.65625 8.015625 75.875 
" id="DejaVuSans-29"/>
     </defs>
     <g transform="translate(161.139062 280.276563)scale(0.1 -0.1)">
      <use xlink:href="#DejaVuSans-45"/>
      <use x="63.183594" xlink:href="#DejaVuSans-78"/>
      <use x="122.363281" xlink:href="#DejaVuSans-74"/>
      <use x="161.572266" xlink:href="#DejaVuSans-72"/>
      <use x="202.685547" xlink:href="#DejaVuSans-75"/>
      <use x="266.064453" xlink:href="#DejaVuSans-64"/>
      <use x="329.541016" xlink:href="#DejaVuSans-65"/>
      <use x="391.064453" xlink:href="#DejaVuSans-72"/>
      <use x="432.177734" xlink:href="#DejaVuSans-20"/>
      <use x="463.964844" xlink:href="#DejaVuSans-66"/>
      <use x="499.169922" xlink:href="#DejaVuSans-72"/>
      <use x="540.251953" xlink:href="#DejaVuSans-65"/>
      <use x="601.775391" xlink:href="#DejaVuSans-71"/>
      <use x="665.251953" xlink:href="#DejaVuSans-75"/>
      <use x="728.630859" xlink:href="#DejaVuSans-65"/>
      <use x="790.154297" xlink:href="#DejaVuSans-6e"/>
      <use x="853.533203" xlink:href="#DejaVuSans-63"/>
      <use x="908.513672" xlink:href="#DejaVuSans-79"/>
      <use x="967.693359" xlink:href="#DejaVuSans-20"/>
      <use x="999.480469" xlink:href="#DejaVuSans-28"/>
      <use x="1038.494141" xlink:href="#DejaVuSans-48"/>
      <use x="1113.689453" xlink:href="#DejaVuSans-7a"/>
      <use x="1166.179688" xlink:href="#DejaVuSans-29"/>
     </g>
    </g>
   </g>
   <g id="matplotlib.axis_2">
    <g id="ytick_1">
     <g id="line2d_7">
      <defs>
       <path d="M 0 0 
L -3.5 0 
" id="mef5f0c4148" style="stroke:#000000;stroke-width:0.8;"/>
      </defs>
      <g>
       <use style="stroke:#000000;stroke-width:0.8;" x="54" xlink:href="#mef5f0c4148" y="230.256"/>
      </g>
     </g>
     <g id="text_8">
      <!-- 9 -->
      <defs>
       <path d="M 10.984375 1.515625 
L 10.984375 10.5 
Q 14.703125 8.734375 18.5 7.8125 
Q 22.3125 6.890625 25.984375 6.890625 
Q 35.75 6.890625 40.890625 13.453125 
Q 46.046875 20.015625 46.78125 33.40625 
Q 43.953125 29.203125 39.59375 26.953125 
Q 35.25 24.703125 29.984375 24.703125 
Q 19.046875 24.703125 12.671875 31.3125 
Q 6.296875 37.9375 6.296875 49.421875 
Q 6.296875 60.640625 12.9375 67.421875 
Q 19.578125 74.21875 30.609375 74.21875 
Q 43.265625 74.21875 49.921875 64.515625 
Q 56.59375 54.828125 56.59375 36.375 
Q 56.59375 19.140625 48.40625 8.859375 
Q 40.234375 -1.421875 26.421875 -1.421875 
Q 22.703125 -1.421875 18.890625 -0.6875 
Q 15.09375 0.046875 10.984375 1.515625 
M 30.609375 32.421875 
Q 37.25 32.421875 41.125 36.953125 
Q 45.015625 41.5 45.015625 49.421875 
Q 45.015625 57.28125 41.125 61.84375 
Q 37.25 66.40625 30.609375 66.40625 
Q 23.96875 66.40625 20.09375 61.84375 
Q 16.21875 57.28125 16.21875 49.421875 
Q 16.21875 41.5 20.09375 36.953125 
Q 23.96875 32.421875 30.609375 32.421875 
" id="DejaVuSans-39"/>
      </defs>
      <g transform="translate(40.6375 234.055219)scale(0.1 -0.1)">
       <use xlink:href="#DejaVuSans-39"/>
      </g>
     </g>
    </g>
    <g id="ytick_2">
     <g id="line2d_8">
      <g>
       <use style="stroke:#000000;stroke-width:0.8;" x="54" xlink:href="#mef5f0c4148" y="186.768"/>
      </g>
     </g>
     <g id="text_9">
      <!-- 10 -->
      <defs>
       <path d="M 12.40625 8.296875 
L 28.515625 8.296875 
L 28.515625 63.921875 
L 10.984375 60.40625 
L 10.984375 69.390625 
L 28.421875 72.90625 
L 38.28125 72.90625 
L 38.28125 8.296875 
L 54.390625 8.296875 
L 54.390625 0 
L 12.40625 0 
z
" id="DejaVuSans-31"/>
      </defs>
      <g transform="translate(34.275 190.567219)scale(0.1 -0.1)">
       <use xlink:href="#DejaVuSans-31"/>
       <use x="63.623047" xlink:href="#DejaVuSans-30"/>
      </g>
     </g>
    </g>
    <g id="ytick_3">
     <g id="line2d_9">
      <g>
       <use style="stroke:#000000;stroke-width:0.8;" x="54" xlink:href="#mef5f0c4148" y="143.28"/>
      </g>
     </g>
     <g id="text_10">
      <!-- 11 -->
      <g transform="translate(34.275 147.079219)scale(0.1 -0.1)">
       <use xlink:href="#DejaVuSans-31"/>
       <use x="63.623047" xlink:href="#DejaVuSans-31"/>
      </g>
     </g>
    </g>
    <g id="ytick_4">
     <g id="line2d_10">
      <g>
       <use style="stroke:#000000;stroke-width:0.8;" x="54" xlink:href="#mef5f0c4148" y="99.792"/>
      </g>
     </g>
     <g id="text_11">
      <!-- 12 -->
      <g transform="translate(34.275 103.591219)scale(0.1 -0.1)">
       <use xlink:href="#DejaVuSans-31"/>
       <use x="63.623047" xlink:href="#DejaVuSans-32"/>
      </g>
     </g>
    </g>
    <g id="ytick_5">
     <g id="line2d_11">
      <g>
       <use style="stroke:#000000;stroke-width:0.8;" x="54" xlink:href="#mef5f0c4148" y="56.304"/>
      </g>
     </g>
     <g id="text_12">
      <!-- 13 -->
      <g transform="translate(34.275 60.103219)scale(0.1 -0.1)">
       <use xlink:href="#DejaVuSans-31"/>
       <use x="63.623047" xlink:href="#DejaVuSans-33"/>
      </g>
     </g>
    </g>
    <g id="text_13">
     <!-- Pinch roller motor speed (cm/s) -->
     <defs>
      <path d="M 19.671875 64.796875 
L 19.671875 37.40625 
L 32.078125 37.40625 
Q 38.96875 37.40625 42.71875 40.96875 
Q 46.484375 44.53125 46.484375 51.125 
Q 46.484375 57.671875 42.71875 61.234375 
Q 38.96875 64.796875 32.078125 64.796875 
z
M 9.8125 72.90625 
L 32.078125 72.90625 
Q 44.34375 72.90625 50.609375 67.359375 
Q 56.890625 61.8125 56.890625 51.125 
Q 56.890625 40.328125 50.609375 34.8125 
Q 44.34375 29.296875 32.078125 29.296875 
L 19.671875 29.296875 
L 19.671875 0 
L 9.8125 0 
z
" id="DejaVuSans-50"/>
      <path d="M 9.421875 54.6875 
L 18.40625 54.6875 
L 18.40625 0 
L 9.421875 0 
z
M 9.421875 75.984375 
L 18.40625 75.984375 
L 18.40625 64.59375 
L 9.421875 64.59375 
z
" id="DejaVuSans-69"/>
      <path d="M 54.890625 33.015625 
L 54.890625 0 
L 45.90625 0 
L 45.90625 32.71875 
Q 45.90625 40.484375 42.875 44.328125 
Q 39.84375 48.1875 33.796875 48.1875 
Q 26.515625 48.1875 22.3125 43.546875 
Q 18.109375 38.921875 18.109375 30.90625 
L 18.109375 0 
L 9.078125 0 
L 9.078125 75.984375 
L 18.109375 75.984375 
L 18.109375 46.1875 
Q 21.34375 51.125 25.703125 53.5625 
Q 30.078125 56 35.796875 56 
Q 45.21875 56 50.046875 50.171875 
Q 54.890625 44.34375 54.890625 33.015625 
" id="DejaVuSans-68"/>
      <path d="M 30.609375 48.390625 
Q 23.390625 48.390625 19.1875 42.75 
Q 14.984375 37.109375 14.984375 27.296875 
Q 14.984375 17.484375 19.15625 11.84375 
Q 23.34375 6.203125 30.609375 6.203125 
Q 37.796875 6.203125 41.984375 11.859375 
Q 46.1875 17.53125 46.1875 27.296875 
Q 46.1875 37.015625 41.984375 42.703125 
Q 37.796875 48.390625 30.609375 48.390625 
M 30.609375 56 
Q 42.328125 56 49.015625 48.375 
Q 55.71875 40.765625 55.71875 27.296875 
Q 55.71875 13.875 49.015625 6.21875 
Q 42.328125 -1.421875 30.609375 -1.421875 
Q 18.84375 -1.421875 12.171875 6.21875 
Q 5.515625 13.875 5.515625 27.296875 
Q 5.515625 40.765625 12.171875 48.375 
Q 18.84375 56 30.609375 56 
" id="DejaVuSans-6f"/>
      <path d="M 9.421875 75.984375 
L 18.40625 75.984375 
L 18.40625 0 
L 9.421875 0 
z
" id="DejaVuSans-6c"/>
      <path d="M 52 44.1875 
Q 55.375 50.25 60.0625 53.125 
Q 64.75 56 71.09375 56 
Q 79.640625 56 84.28125 50.015625 
Q 88.921875 44.046875 88.921875 33.015625 
L 88.921875 0 
L 79.890625 0 
L 79.890625 32.71875 
Q 79.890625 40.578125 77.09375 44.375 
Q 74.3125 48.1875 68.609375 48.1875 
Q 61.625 48.1875 57.5625 43.546875 
Q 53.515625 38.921875 53.515625 30.90625 
L 53.515625 0 
L 44.484375 0 
L 44.484375 32.71875 
Q 44.484375 40.625 41.703125 44.40625 
Q 38.921875 48.1875 33.109375 48.1875 
Q 26.21875 48.1875 22.15625 43.53125 
Q 18.109375 38.875 18.109375 30.90625 
L 18.109375 0 
L 9.078125 0 
L 9.078125 54.6875 
L 18.109375 54.6875 
L 18.109375 46.1875 
Q 21.1875 51.21875 25.484375 53.609375 
Q 29.78125 56 35.6875 56 
Q 41.65625 56 45.828125 52.96875 
Q 50 49.953125 52 44.1875 
" id="DejaVuSans-6d"/>
      <path d="M 44.28125 53.078125 
L 44.28125 44.578125 
Q 40.484375 46.53125 36.375 47.5 
Q 32.28125 48.484375 27.875 48.484375 
Q 21.1875 48.484375 17.84375 46.4375 
Q 14.5 44.390625 14.5 40.28125 
Q 14.5 37.15625 16.890625 35.375 
Q 19.28125 33.59375 26.515625 31.984375 
L 29.59375 31.296875 
Q 39.15625 29.25 43.1875 25.515625 
Q 47.21875 21.78125 47.21875 15.09375 
Q 47.21875 7.46875 41.1875 3.015625 
Q 35.15625 -1.421875 24.609375 -1.421875 
Q 20.21875 -1.421875 15.453125 -0.5625 
Q 10.6875 0.296875 5.421875 2 
L 5.421875 11.28125 
Q 10.40625 8.6875 15.234375 7.390625 
Q 20.0625 6.109375 24.8125 6.109375 
Q 31.15625 6.109375 34.5625 8.28125 
Q 37.984375 10.453125 37.984375 14.40625 
Q 37.984375 18.0625 35.515625 20.015625 
Q 33.0625 21.96875 24.703125 23.78125 
L 21.578125 24.515625 
Q 13.234375 26.265625 9.515625 29.90625 
Q 5.8125 33.546875 5.8125 39.890625 
Q 5.8125 47.609375 11.28125 51.796875 
Q 16.75 56 26.8125 56 
Q 31.78125 56 36.171875 55.265625 
Q 40.578125 54.546875 44.28125 53.078125 
" id="DejaVuSans-73"/>
      <path d="M 18.109375 8.203125 
L 18.109375 -20.796875 
L 9.078125 -20.796875 
L 9.078125 54.6875 
L 18.109375 54.6875 
L 18.109375 46.390625 
Q 20.953125 51.265625 25.265625 53.625 
Q 29.59375 56 35.59375 56 
Q 45.5625 56 51.78125 48.09375 
Q 58.015625 40.1875 58.015625 27.296875 
Q 58.015625 14.40625 51.78125 6.484375 
Q 45.5625 -1.421875 35.59375 -1.421875 
Q 29.59375 -1.421875 25.265625 0.953125 
Q 20.953125 3.328125 18.109375 8.203125 
M 48.6875 27.296875 
Q 48.6875 37.203125 44.609375 42.84375 
Q 40.53125 48.484375 33.40625 48.484375 
Q 26.265625 48.484375 22.1875 42.84375 
Q 18.109375 37.203125 18.109375 27.296875 
Q 18.109375 17.390625 22.1875 11.75 
Q 26.265625 6.109375 33.40625 6.109375 
Q 40.53125 6.109375 44.609375 11.75 
Q 48.6875 17.390625 48.6875 27.296875 
" id="DejaVuSans-70"/>
      <path d="M 25.390625 72.90625 
L 33.6875 72.90625 
L 8.296875 -9.28125 
L 0 -9.28125 
z
" id="DejaVuSans-2f"/>
     </defs>
     <g transform="translate(28.195312 222.069844)rotate(-90)scale(0.1 -0.1)">
      <use xlink:href="#DejaVuSans-50"/>
      <use x="60.271484" xlink:href="#DejaVuSans-69"/>
      <use x="88.054688" xlink:href="#DejaVuSans-6e"/>
      <use x="151.433594" xlink:href="#DejaVuSans-63"/>
      <use x="206.414062" xlink:href="#DejaVuSans-68"/>
      <use x="269.792969" xlink:href="#DejaVuSans-20"/>
      <use x="301.580078" xlink:href="#DejaVuSans-72"/>
      <use x="342.662109" xlink:href="#DejaVuSans-6f"/>
      <use x="403.84375" xlink:href="#DejaVuSans-6c"/>
      <use x="431.626953" xlink:href="#DejaVuSans-6c"/>
      <use x="459.410156" xlink:href="#DejaVuSans-65"/>
      <use x="520.933594" xlink:href="#DejaVuSans-72"/>
      <use x="562.046875" xlink:href="#DejaVuSans-20"/>
      <use x="593.833984" xlink:href="#DejaVuSans-6d"/>
      <use x="691.246094" xlink:href="#DejaVuSans-6f"/>
      <use x="752.427734" xlink:href="#DejaVuSans-74"/>
      <use x="791.636719" xlink:href="#DejaVuSans-6f"/>
      <use x="852.818359" xlink:href="#DejaVuSans-72"/>
      <use x="893.931641" xlink:href="#DejaVuSans-20"/>
      <use x="925.71875" xlink:href="#DejaVuSans-73"/>
      <use x="977.818359" xlink:href="#DejaVuSans-70"/>
      <use x="1041.294922" xlink:href="#DejaVuSans-65"/>
      <use x="1102.818359" xlink:href="#DejaVuSans-65"/>
      <use x="1164.341797" xlink:href="#DejaVuSans-64"/>
      <use x="1227.818359" xlink:href="#DejaVuSans-20"/>
      <use x="1259.605469" xlink:href="#DejaVuSans-28"/>
      <use x="1298.619141" xlink:href="#DejaVuSans-63"/>
      <use x="1353.599609" xlink:href="#DejaVuSans-6d"/>
      <use x="1451.011719" xlink:href="#DejaVuSans-2f"/>
      <use x="1484.703125" xlink:href="#DejaVuSans-73"/>
      <use x="1536.802734" xlink:href="#DejaVuSans-29"/>
     </g>
    </g>
   </g>
   <g id="line2d_12">
    <path clip-path="url(#pe8590f0c6e)" d="M 117.029179 289 
L 175.745455 262.724141 
L 175.745455 262.724141 
L 175.745455 262.724141 
L 267.054545 221.862816 
L 267.054545 221.862816 
L 267.054545 221.862816 
L 327.927273 194.621933 
L 327.927273 194.621933 
L 327.927273 194.621933 
L 388.8 167.38105 
L 388.8 167.38105 
L 388.8 167.38105 
" style="fill:none;stroke:#000000;stroke-linecap:square;stroke-width:1.5;"/>
   </g>
   <g id="line2d_13">
    <path clip-path="url(#pe8590f0c6e)" d="M 54 269.282131 
L 54 269.282131 
L 54 269.282131 
L 114.872727 239.266714 
L 114.872727 239.266714 
L 114.872727 239.266714 
L 175.745455 209.251296 
L 175.745455 209.251296 
L 175.745455 209.251296 
L 267.054545 164.22817 
L 267.054545 164.22817 
L 267.054545 164.22817 
L 327.927273 134.212752 
L 327.927273 134.212752 
L 327.927273 134.212752 
L 388.8 104.197334 
L 388.8 104.197334 
L 388.8 104.197334 
" style="fill:none;stroke:#000000;stroke-dasharray:8,4;stroke-dashoffset:0;stroke-width:1.5;"/>
   </g>
   <g id="line2d_14">
    <path clip-path="url(#pe8590f0c6e)" d="M 54 160.066368 
L 175.745455 160.066368 
" style="fill:none;stroke:#929591;stroke-linecap:square;stroke-width:1.5;"/>
   </g>
   <g id="line2d_15">
    <path clip-path="url(#pe8590f0c6e)" d="M 54 243.3024 
L 175.745455 243.3024 
" style="fill:none;stroke:#929591;stroke-linecap:square;stroke-width:1.5;"/>
   </g>
   <g id="line2d_16">
    <path clip-path="url(#pe8590f0c6e)" d="M 175.745455 243.3024 
L 175.745455 160.066368 
" style="fill:none;stroke:#929591;stroke-linecap:square;stroke-width:1.5;"/>
   </g>
   <g id="line2d_17">
    <path clip-path="url(#pe8590f0c6e)" d="M 267.054545 142.41024 
L 388.8 142.41024 
" style="fill:none;stroke:#929591;stroke-linecap:square;stroke-width:1.5;"/>
   </g>
   <g id="line2d_18">
    <path clip-path="url(#pe8590f0c6e)" d="M 267.054545 41.51808 
L 388.8 41.51808 
" style="fill:none;stroke:#929591;stroke-linecap:square;stroke-width:1.5;"/>
   </g>
   <g id="line2d_19">
    <path clip-path="url(#pe8590f0c6e)" d="M 267.054545 41.51808 
L 267.054545 142.41024 
" style="fill:none;stroke:#929591;stroke-linecap:square;stroke-width:1.5;"/>
   </g>
   <g id="patch_3">
    <path d="M 54 252 
L 54 34.56 
" style="fill:none;stroke:#000000;stroke-linecap:square;stroke-linejoin:miter;stroke-width:0.8;"/>
   </g>
   <g id="patch_4">
    <path d="M 388.8 252 
L 388.8 34.56 
" style="fill:none;stroke:#000000;stroke-linecap:square;stroke-linejoin:miter;stroke-width:0.8;"/>
   </g>
   <g id="patch_5">
    <path d="M 54 252 
L 388.8 252 
" style="fill:none;stroke:#000000;stroke-linecap:square;stroke-linejoin:miter;stroke-width:0.8;"/>
   </g>
   <g id="patch_6">
    <path d="M 54 34.56 
L 388.8 34.56 
" style="fill:none;stroke:#000000;stroke-linecap:square;stroke-linejoin:miter;stroke-width:0.8;"/>
   </g>
   <g id="text_14">
    <!-- Region B -->
    <defs>
     <path d="M 44.390625 34.1875 
Q 47.5625 33.109375 50.5625 29.59375 
Q 53.5625 26.078125 56.59375 19.921875 
L 66.609375 0 
L 56 0 
L 46.6875 18.703125 
Q 43.0625 26.03125 39.671875 28.421875 
Q 36.28125 30.8125 30.421875 30.8125 
L 19.671875 30.8125 
L 19.671875 0 
L 9.8125 0 
L 9.8125 72.90625 
L 32.078125 72.90625 
Q 44.578125 72.90625 50.734375 67.671875 
Q 56.890625 62.453125 56.890625 51.90625 
Q 56.890625 45.015625 53.6875 40.46875 
Q 50.484375 35.9375 44.390625 34.1875 
M 19.671875 64.796875 
L 19.671875 38.921875 
L 32.078125 38.921875 
Q 39.203125 38.921875 42.84375 42.21875 
Q 46.484375 45.515625 46.484375 51.90625 
Q 46.484375 58.296875 42.84375 61.546875 
Q 39.203125 64.796875 32.078125 64.796875 
z
" id="DejaVuSans-52"/>
     <path d="M 45.40625 27.984375 
Q 45.40625 37.75 41.375 43.109375 
Q 37.359375 48.484375 30.078125 48.484375 
Q 22.859375 48.484375 18.828125 43.109375 
Q 14.796875 37.75 14.796875 27.984375 
Q 14.796875 18.265625 18.828125 12.890625 
Q 22.859375 7.515625 30.078125 7.515625 
Q 37.359375 7.515625 41.375 12.890625 
Q 45.40625 18.265625 45.40625 27.984375 
M 54.390625 6.78125 
Q 54.390625 -7.171875 48.1875 -13.984375 
Q 42 -20.796875 29.203125 -20.796875 
Q 24.46875 -20.796875 20.265625 -20.09375 
Q 16.0625 -19.390625 12.109375 -17.921875 
L 12.109375 -9.1875 
Q 16.0625 -11.328125 19.921875 -12.34375 
Q 23.78125 -13.375 27.78125 -13.375 
Q 36.625 -13.375 41.015625 -8.765625 
Q 45.40625 -4.15625 45.40625 5.171875 
L 45.40625 9.625 
Q 42.625 4.78125 38.28125 2.390625 
Q 33.9375 0 27.875 0 
Q 17.828125 0 11.671875 7.65625 
Q 5.515625 15.328125 5.515625 27.984375 
Q 5.515625 40.671875 11.671875 48.328125 
Q 17.828125 56 27.875 56 
Q 33.9375 56 38.28125 53.609375 
Q 42.625 51.21875 45.40625 46.390625 
L 45.40625 54.6875 
L 54.390625 54.6875 
z
" id="DejaVuSans-67"/>
     <path d="M 19.671875 34.8125 
L 19.671875 8.109375 
L 35.5 8.109375 
Q 43.453125 8.109375 47.28125 11.40625 
Q 51.125 14.703125 51.125 21.484375 
Q 51.125 28.328125 47.28125 31.5625 
Q 43.453125 34.8125 35.5 34.8125 
z
M 19.671875 64.796875 
L 19.671875 42.828125 
L 34.28125 42.828125 
Q 41.5 42.828125 45.03125 45.53125 
Q 48.578125 48.25 48.578125 53.8125 
Q 48.578125 59.328125 45.03125 62.0625 
Q 41.5 64.796875 34.28125 64.796875 
z
M 9.8125 72.90625 
L 35.015625 72.90625 
Q 46.296875 72.90625 52.390625 68.21875 
Q 58.5 63.53125 58.5 54.890625 
Q 58.5 48.1875 55.375 44.234375 
Q 52.25 40.28125 46.1875 39.3125 
Q 53.46875 37.75 57.5 32.78125 
Q 61.53125 27.828125 61.53125 20.40625 
Q 61.53125 10.640625 54.890625 5.3125 
Q 48.25 0 35.984375 0 
L 9.8125 0 
z
" id="DejaVuSans-42"/>
    </defs>
    <g transform="translate(84.436364 205.46784)scale(0.1 -0.1)">
     <use xlink:href="#DejaVuSans-52"/>
     <use x="69.419922" xlink:href="#DejaVuSans-65"/>
     <use x="130.943359" xlink:href="#DejaVuSans-67"/>
     <use x="194.419922" xlink:href="#DejaVuSans-69"/>
     <use x="222.203125" xlink:href="#DejaVuSans-6f"/>
     <use x="283.384766" xlink:href="#DejaVuSans-6e"/>
     <use x="346.763672" xlink:href="#DejaVuSans-20"/>
     <use x="378.550781" xlink:href="#DejaVuSans-42"/>
    </g>
   </g>
   <g id="text_15">
    <!-- Region A -->
    <defs>
     <path d="M 34.1875 63.1875 
L 20.796875 26.90625 
L 47.609375 26.90625 
z
M 28.609375 72.90625 
L 39.796875 72.90625 
L 67.578125 0 
L 57.328125 0 
L 50.6875 18.703125 
L 17.828125 18.703125 
L 11.1875 0 
L 0.78125 0 
z
" id="DejaVuSans-41"/>
    </defs>
    <g transform="translate(297.490909 91.96416)scale(0.1 -0.1)">
     <use xlink:href="#DejaVuSans-52"/>
     <use x="69.419922" xlink:href="#DejaVuSans-65"/>
     <use x="130.943359" xlink:href="#DejaVuSans-67"/>
     <use x="194.419922" xlink:href="#DejaVuSans-69"/>
     <use x="222.203125" xlink:href="#DejaVuSans-6f"/>
     <use x="283.384766" xlink:href="#DejaVuSans-6e"/>
     <use x="346.763672" xlink:href="#DejaVuSans-20"/>
     <use x="378.550781" xlink:href="#DejaVuSans-41"/>
    </g>
   </g>
   <g id="legend_1">
    <g id="patch_7">
     <path d="M 61 71.91625 
L 180.360938 71.91625 
Q 182.360938 71.91625 182.360938 69.91625 
L 182.360938 41.56 
Q 182.360938 39.56 180.360938 39.56 
L 61 39.56 
Q 59 39.56 59 41.56 
L 59 69.91625 
Q 59 71.91625 61 71.91625 
z
" style="fill:#ffffff;opacity:0.8;stroke:#cccccc;stroke-linejoin:miter;"/>
    </g>
    <g id="line2d_20">
     <path d="M 63 47.658437 
L 83 47.658437 
" style="fill:none;stroke:#000000;stroke-linecap:square;stroke-width:1.5;"/>
    </g>
    <g id="line2d_21"/>
    <g id="text_16">
     <!-- steady state limit -->
     <defs>
      <path d="M 34.28125 27.484375 
Q 23.390625 27.484375 19.1875 25 
Q 14.984375 22.515625 14.984375 16.5 
Q 14.984375 11.71875 18.140625 8.90625 
Q 21.296875 6.109375 26.703125 6.109375 
Q 34.1875 6.109375 38.703125 11.40625 
Q 43.21875 16.703125 43.21875 25.484375 
L 43.21875 27.484375 
z
M 52.203125 31.203125 
L 52.203125 0 
L 43.21875 0 
L 43.21875 8.296875 
Q 40.140625 3.328125 35.546875 0.953125 
Q 30.953125 -1.421875 24.3125 -1.421875 
Q 15.921875 -1.421875 10.953125 3.296875 
Q 6 8.015625 6 15.921875 
Q 6 25.140625 12.171875 29.828125 
Q 18.359375 34.515625 30.609375 34.515625 
L 43.21875 34.515625 
L 43.21875 35.40625 
Q 43.21875 41.609375 39.140625 45 
Q 35.0625 48.390625 27.6875 48.390625 
Q 23 48.390625 18.546875 47.265625 
Q 14.109375 46.140625 10.015625 43.890625 
L 10.015625 52.203125 
Q 14.9375 54.109375 19.578125 55.046875 
Q 24.21875 56 28.609375 56 
Q 40.484375 56 46.34375 49.84375 
Q 52.203125 43.703125 52.203125 31.203125 
" id="DejaVuSans-61"/>
     </defs>
     <g transform="translate(91 51.158437)scale(0.1 -0.1)">
      <use xlink:href="#DejaVuSans-73"/>
      <use x="52.099609" xlink:href="#DejaVuSans-74"/>
      <use x="91.308594" xlink:href="#DejaVuSans-65"/>
      <use x="152.832031" xlink:href="#DejaVuSans-61"/>
      <use x="214.111328" xlink:href="#DejaVuSans-64"/>
      <use x="277.587891" xlink:href="#DejaVuSans-79"/>
      <use x="336.767578" xlink:href="#DejaVuSans-20"/>
      <use x="368.554688" xlink:href="#DejaVuSans-73"/>
      <use x="420.654297" xlink:href="#DejaVuSans-74"/>
      <use x="459.863281" xlink:href="#DejaVuSans-61"/>
      <use x="521.142578" xlink:href="#DejaVuSans-74"/>
      <use x="560.351562" xlink:href="#DejaVuSans-65"/>
      <use x="621.875" xlink:href="#DejaVuSans-20"/>
      <use x="653.662109" xlink:href="#DejaVuSans-6c"/>
      <use x="681.445312" xlink:href="#DejaVuSans-69"/>
      <use x="709.228516" xlink:href="#DejaVuSans-6d"/>
      <use x="806.640625" xlink:href="#DejaVuSans-69"/>
      <use x="834.423828" xlink:href="#DejaVuSans-74"/>
     </g>
    </g>
    <g id="line2d_22">
     <path d="M 63 62.336562 
L 83 62.336562 
" style="fill:none;stroke:#000000;stroke-dasharray:8,4;stroke-dashoffset:0;stroke-width:1.5;"/>
    </g>
    <g id="line2d_23"/>
    <g id="text_17">
     <!-- line of operation -->
     <g transform="translate(91 65.836562)scale(0.1 -0.1)">
      <use xlink:href="#DejaVuSans-6c"/>
      <use x="27.783203" xlink:href="#DejaVuSans-69"/>
      <use x="55.566406" xlink:href="#DejaVuSans-6e"/>
      <use x="118.945312" xlink:href="#DejaVuSans-65"/>
      <use x="180.46875" xlink:href="#DejaVuSans-20"/>
      <use x="212.255859" xlink:href="#DejaVuSans-6f"/>
      <use x="273.4375" xlink:href="#DejaVuSans-66"/>
      <use x="308.642578" xlink:href="#DejaVuSans-20"/>
      <use x="340.429688" xlink:href="#DejaVuSans-6f"/>
      <use x="401.611328" xlink:href="#DejaVuSans-70"/>
      <use x="465.087891" xlink:href="#DejaVuSans-65"/>
      <use x="526.611328" xlink:href="#DejaVuSans-72"/>
      <use x="567.724609" xlink:href="#DejaVuSans-61"/>
      <use x="629.003906" xlink:href="#DejaVuSans-74"/>
      <use x="668.212891" xlink:href="#DejaVuSans-69"/>
      <use x="695.996094" xlink:href="#DejaVuSans-6f"/>
      <use x="757.177734" xlink:href="#DejaVuSans-6e"/>
     </g>
    </g>
   </g>
  </g>
 </g>
 <defs>
  <clipPath id="pe8590f0c6e">
   <rect height="217.44" width="334.8" x="54" y="34.56"/>
  </clipPath>
 </defs>
</svg>
